<?xml version="1.0" standalone="no"?>
<!DOCTYPE svg PUBLIC "-//W3C//DTD SVG 1.1//EN" "http://www.w3.org/Graphics/SVG/1.1/DTD/svg11.dtd" >
<svg xmlns="http://www.w3.org/2000/svg">
<metadata></metadata>
<defs>
<font id="camcorder_monospacedudontknow" horiz-adv-x="600" >
<font-face units-per-em="1000" ascent="850" descent="-150" />
<missing-glyph horiz-adv-x="500" />
<glyph unicode=" " />
<glyph unicode="!" d="M250 0v100h100v-100h-100zM600 450v-200h-250v-50h-100v50h-250v200h250v250h100v-250h250z" />
<glyph unicode="&#x22;" d="M450 700v-200h-100v200h100zM250 700v-200h-100v200h100zM0 450h600v-200h-600v200z" />
<glyph unicode="#" d="M600 450v-200h-50v-50h-100v-100h-100v100h-100v-100h-100v100h-100v50h-50v200h50v50h100v100h100v-100h100v100h100v-100h100v-50h50z" />
<glyph unicode="$" d="M600 450v-200h-50v-150h-50v-50h-50v-50h-100v-100h-100v100h-100v50h-50v50h-50v100h100v-50h50v-50h50v150h-250v200h50v150h50v50h50v50h100v100h100v-100h100v-50h50v-50h50v-100h-100v50h-50v50h-50v-150h250zM150 550v-100h100v150h-50v-50h-50zM450 150v100h-100 v-150h50v50h50z" />
<glyph unicode="%" d="M350 0v200h200v-200h-200zM250 700v-200h-200v200h200zM500 450h100v-200h-350v-50h-50v-50h-50v-150h-100v200h50v50h-100v200h350v50h50v50h50v150h100v-200h-50v-50z" />
<glyph unicode="&#x26;" d="M400 450h200v-200h-100v-50h-50v-50h50v-50h50v-100h-100v50h-100v-50h-200v50h-50v50h-50v150h-50v200h50v150h50v50h50v50h150v-50h50v-50h50v-150zM150 550v-50h50v-50h50v50h50v50h-50v50h-50v-50h-50zM350 200h-50v50h-150v-100h50v-50h100v50h50v50z" />
<glyph unicode="'" d="M350 700v-200h-100v200h100zM0 450h600v-200h-600v200z" />
<glyph unicode="(" d="M600 250h-350v-150h50v-50h50v-50h100v-100h-150v50h-50v50h-50v50h-50v200h-150v200h150v200h50v50h50v50h50v50h150v-100h-100v-50h-50v-50h-50v-150h350v-200z" />
<glyph unicode=")" d="M600 450v-200h-150v-200h-50v-50h-50v-50h-50v-50h-150v100h100v50h50v50h50v150h-350v200h350v150h-50v50h-50v50h-100v100h150v-50h50v-50h50v-50h50v-200h150z" />
<glyph unicode="*" d="M500 450h100v-200h-100v-100h-100v50h-50v-100h-100v100h-50v-50h-100v100h-100v200h100v100h100v-50h50v100h100v-100h50v50h100v-100z" />
<glyph unicode="+" d="M600 450v-200h-250v-100h-100v100h-250v200h250v100h100v-100h250z" />
<glyph unicode="," d="M250 -100v200h100v-200h-100zM0 450h600v-200h-600v200z" />
<glyph unicode="-" d="M0 450h600v-200h-600v200z" />
<glyph unicode="." d="M250 0v100h100v-100h-100zM0 450h600v-200h-600v200z" />
<glyph unicode="/" d="M500 450h100v-200h-350v-50h-50v-50h-50v-150h-100v200h50v50h-100v200h350v50h50v50h50v150h100v-200h-50v-50z" />
<glyph unicode="0" d="M600 450v-200h-50v-150h-50v-50h-50v-50h-300v50h-50v50h-50v150h-50v200h50v150h50v50h50v50h300v-50h50v-50h50v-150h50zM150 550v-100h200v50h50v100h-200v-50h-50zM450 150v100h-200v-50h-50v-100h200v50h50z" />
<glyph unicode="1" d="M600 250h-250v-150h100v-100h-300v100h100v150h-250v200h250v50h-100v100h50v50h50v50h100v-250h250v-200z" />
<glyph unicode="2" d="M300 150h-50v-50h300v-100h-500v100h50v50h50v50h50v50h-200v200h450v100h-50v50h-200v-50h-50v-50h-100v100h50v50h50v50h300v-50h50v-50h50v-150h50v-200h-250v-50h-50v-50z" />
<glyph unicode="3" d="M600 450v-200h-50v-150h-50v-50h-50v-50h-300v50h-50v50h-50v100h100v-50h50v-50h200v50h50v100h-450v200h450v100h-50v50h-200v-50h-50v-50h-100v100h50v50h50v50h300v-50h50v-50h50v-150h50z" />
<glyph unicode="4" d="M600 450v-200h-50v-50h-100v-200h-100v200h-300v50h-50v200h150v50h50v50h50v50h50v50h50v50h100v-250h150zM300 500v-50h50v50h-50z" />
<glyph unicode="5" d="M600 450v-200h-50v-150h-50v-50h-50v-50h-300v50h-50v50h-50v100h100v-50h50v-50h200v50h50v100h-450v200h50v250h500v-100h-400v-100h300v-50h150z" />
<glyph unicode="6" d="M600 450v-200h-50v-150h-50v-50h-50v-50h-300v50h-50v50h-50v150h-50v200h50v150h50v50h50v50h300v-50h50v-50h50v-100h-100v50h-50v50h-200v-50h-50v-100h450zM450 150v100h-300v-100h50v-50h200v50h50z" />
<glyph unicode="7" d="M550 450h50v-200h-300v-50h-50v-200h-100v250h-150v200h400v50h50v100h-400v100h500v-250z" />
<glyph unicode="8" d="M600 450v-200h-50v-150h-50v-50h-50v-50h-300v50h-50v50h-50v150h-50v200h50v150h50v50h50v50h300v-50h50v-50h50v-150h50zM150 550v-100h300v100h-50v50h-200v-50h-50zM450 150v100h-300v-100h50v-50h200v50h50z" />
<glyph unicode="9" d="M600 450v-200h-50v-150h-50v-50h-50v-50h-300v50h-50v50h-50v100h100v-50h50v-50h200v50h50v100h-450v200h50v150h50v50h50v50h300v-50h50v-50h50v-150h50zM150 550v-100h300v100h-50v50h-200v-50h-50z" />
<glyph unicode=":" d="M250 0v100h100v-100h-100zM350 450h250v-200h-600v200h250v50h100v-50z" />
<glyph unicode=";" d="M250 -100v200h100v-200h-100zM350 450h250v-200h-600v200h250v50h100v-50z" />
<glyph unicode="&#x3c;" d="M600 250h-200v-50h50v-100h-100v50h-50v50h-50v50h-250v200h250v50h50v50h50v50h100v-100h-50v-50h200v-200z" />
<glyph unicode="=" d="M600 450v-200h-100v-50h-400v50h-100v200h100v50h400v-50h100z" />
<glyph unicode="&#x3e;" d="M350 450h250v-200h-250v-50h-50v-50h-50v-50h-100v100h50v50h-200v200h200v50h-50v100h100v-50h50v-50h50v-50z" />
<glyph unicode="?" d="M250 0v100h100v-100h-100zM550 450h50v-200h-250v-50h-100v50h-250v200h450v100h-50v50h-200v-50h-50v-50h-100v100h50v50h50v50h300v-50h50v-50h50v-150z" />
<glyph unicode="@" d="M550 450h50v-200h-100v-50h-250v50h-100v-100h50v-50h300v-100h-350v50h-50v50h-50v150h-50v200h50v150h50v50h50v50h300v-50h50v-50h50v-150zM150 450h100v50h150v-50h50v100h-50v50h-200v-50h-50v-100z" />
<glyph unicode="A" d="M600 450v-200h-50v-250h-100v200h-300v-200h-100v250h-50v200h50v50h50v50h50v50h50v50h50v50h100v-50h50v-50h50v-50h50v-50h50v-50h50zM200 500v-50h200v50h-50v50h-100v-50h-50z" />
<glyph unicode="B" d="M600 450v-200h-50v-150h-50v-50h-50v-50h-400v250h-50v200h50v250h400v-50h50v-50h50v-150h50zM150 600v-150h300v100h-50v50h-250zM450 150v100h-300v-150h250v50h50z" />
<glyph unicode="C" d="M600 250h-450v-100h50v-50h200v50h50v50h100v-100h-50v-50h-50v-50h-300v50h-50v50h-50v150h-50v200h50v150h50v50h50v50h300v-50h50v-50h50v-100h-100v50h-50v50h-200v-50h-50v-100h450v-200z" />
<glyph unicode="D" d="M600 450v-200h-50v-150h-50v-50h-50v-50h-400v250h-50v200h50v250h400v-50h50v-50h50v-150h50zM150 600v-150h300v100h-50v50h-250zM450 150v100h-300v-150h250v50h50z" />
<glyph unicode="E" d="M600 250h-450v-150h400v-100h-500v250h-50v200h50v250h500v-100h-400v-150h450v-200z" />
<glyph unicode="F" d="M600 450v-200h-450v-250h-100v250h-50v200h50v250h500v-100h-400v-150h450z" />
<glyph unicode="G" d="M600 450v-200h-50v-150h-50v-50h-50v-50h-300v50h-50v50h-50v150h-50v200h50v150h50v50h50v50h300v-50h50v-50h50v-100h-100v50h-50v50h-200v-50h-50v-100h450zM450 150v100h-300v-100h50v-50h200v50h50z" />
<glyph unicode="H" d="M600 450v-200h-50v-250h-100v250h-300v-250h-100v250h-50v200h50v250h100v-250h300v250h100v-250h50z" />
<glyph unicode="I" d="M600 250h-250v-150h100v-100h-300v100h100v150h-250v200h250v150h-100v100h300v-100h-100v-150h250v-200z" />
<glyph unicode="J" d="M600 450v-200h-50v-150h-50v-50h-50v-50h-300v50h-50v50h-50v100h100v-50h50v-50h200v50h50v100h-450v200h450v250h100v-250h50z" />
<glyph unicode="K" d="M600 250h-200v-50h50v-50h50v-50h50v-100h-100v50h-50v50h-50v50h-50v50h-50v50h-100v-250h-100v250h-50v200h50v250h100v-250h100v50h50v50h50v50h50v50h50v50h100v-100h-50v-50h-50v-50h-50v-50h200v-200z" />
<glyph unicode="L" d="M600 250h-450v-150h400v-100h-500v250h-50v200h50v250h100v-250h450v-200z" />
<glyph unicode="M" d="M600 450v-200h-50v-250h-100v250h-300v-250h-100v250h-50v200h50v250h100v-100h50v-50h50v-50h100v50h50v50h50v100h100v-250h50z" />
<glyph unicode="N" d="M600 450v-200h-50v-250h-100v150h-50v50h-50v50h-200v-250h-100v250h-50v200h50v250h100v-150h50v-50h50v-50h200v250h100v-250h50z" />
<glyph unicode="O" d="M600 450v-200h-50v-150h-50v-50h-50v-50h-300v50h-50v50h-50v150h-50v200h50v150h50v50h50v50h300v-50h50v-50h50v-150h50zM150 550v-100h300v100h-50v50h-200v-50h-50zM450 150v100h-300v-100h50v-50h200v50h50z" />
<glyph unicode="P" d="M600 450v-200h-450v-250h-100v250h-50v200h50v250h400v-50h50v-50h50v-150h50zM150 600v-150h300v100h-50v50h-250z" />
<glyph unicode="Q" d="M600 450v-200h-50v-100h-50v-50h50v-100h-100v50h-50v-50h-250v50h-50v50h-50v150h-50v200h50v150h50v50h50v50h300v-50h50v-50h50v-150h50zM150 550v-100h300v100h-50v50h-200v-50h-50zM350 100v50h-50v100h-150v-100h50v-50h150zM450 200v50h-50v-50h50z" />
<glyph unicode="R" d="M600 250h-200v-50h50v-50h50v-50h50v-100h-100v50h-50v50h-50v50h-50v50h-50v50h-100v-250h-100v250h-50v200h50v250h400v-50h50v-50h50v-150h50v-200zM150 600v-150h300v100h-50v50h-250z" />
<glyph unicode="S" d="M600 450v-200h-50v-150h-50v-50h-50v-50h-300v50h-50v50h-50v100h100v-50h50v-50h200v50h50v100h-450v200h50v150h50v50h50v50h300v-50h50v-50h50v-100h-100v50h-50v50h-200v-50h-50v-100h450z" />
<glyph unicode="T" d="M600 450v-200h-250v-250h-100v250h-250v200h250v150h-200v100h500v-100h-200v-150h250z" />
<glyph unicode="U" d="M600 450v-200h-50v-150h-50v-50h-50v-50h-300v50h-50v50h-50v150h-50v200h50v250h100v-250h300v250h100v-250h50zM450 150v100h-300v-100h50v-50h200v50h50z" />
<glyph unicode="V" d="M600 450v-200h-50v-100h-50v-50h-50v-50h-50v-50h-200v50h-50v50h-50v50h-50v100h-50v200h50v250h100v-250h300v250h100v-250h50zM450 200v50h-300v-50h50v-50h50v-50h100v50h50v50h50z" />
<glyph unicode="W" d="M600 450v-200h-50v-150h-50v-50h-50v-50h-100v50h-100v-50h-100v50h-50v50h-50v150h-50v200h50v250h100v-250h300v250h100v-250h50zM150 150h100v100h-100v-100zM450 150v100h-100v-100h100z" />
<glyph unicode="X" d="M600 250h-100v-50h50v-200h-100v150h-50v50h-50v50h-100v-50h-50v-50h-50v-150h-100v200h50v50h-100v200h100v50h-50v200h100v-150h50v-50h50v-50h100v50h50v50h50v150h100v-200h-50v-50h100v-200z" />
<glyph unicode="Y" d="M600 450v-200h-250v-250h-100v250h-250v200h100v50h-50v200h100v-150h50v-50h50v-50h100v50h50v50h50v150h100v-200h-50v-50h100z" />
<glyph unicode="Z" d="M200 150h-50v-50h400v-100h-500v200h50v50h-100v200h350v50h50v50h50v50h-400v100h500v-200h-50v-50h100v-200h-350v-50h-50v-50z" />
<glyph unicode="[" d="M600 250h-350v-250h200v-100h-300v350h-150v200h150v350h300v-100h-200v-250h350v-200z" />
<glyph unicode="\" d="M600 250h-100v-50h50v-200h-100v150h-50v50h-50v50h-350v200h100v50h-50v200h100v-150h50v-50h50v-50h350v-200z" />
<glyph unicode="]" d="M600 450v-200h-150v-350h-300v100h200v250h-350v200h350v250h-200v100h300v-350h150z" />
<glyph unicode="^" d="M250 650v-50h-100v100h50v50h50v50h100v-50h50v-50h50v-100h-100v50h-100zM0 450h600v-200h-600v200z" />
<glyph unicode="_" d="M50 -100v100h500v-100h-500zM0 450h600v-200h-600v200z" />
<glyph unicode="`" d="M250 650v50h-50v100h100v-50h50v-50h50v-100h-100v50h-50zM0 450h600v-200h-600v200z" />
<glyph unicode="a" d="M600 450v-200h-50v-250h-100v200h-300v-200h-100v250h-50v200h50v50h50v50h50v50h50v50h50v50h100v-50h50v-50h50v-50h50v-50h50v-50h50zM200 500v-50h200v50h-50v50h-100v-50h-50z" />
<glyph unicode="b" d="M600 450v-200h-50v-150h-50v-50h-50v-50h-400v250h-50v200h50v250h400v-50h50v-50h50v-150h50zM150 600v-150h300v100h-50v50h-250zM450 150v100h-300v-150h250v50h50z" />
<glyph unicode="c" d="M600 250h-450v-100h50v-50h200v50h50v50h100v-100h-50v-50h-50v-50h-300v50h-50v50h-50v150h-50v200h50v150h50v50h50v50h300v-50h50v-50h50v-100h-100v50h-50v50h-200v-50h-50v-100h450v-200z" />
<glyph unicode="d" d="M600 450v-200h-50v-150h-50v-50h-50v-50h-400v250h-50v200h50v250h400v-50h50v-50h50v-150h50zM150 600v-150h300v100h-50v50h-250zM450 150v100h-300v-150h250v50h50z" />
<glyph unicode="e" d="M600 250h-450v-150h400v-100h-500v250h-50v200h50v250h500v-100h-400v-150h450v-200z" />
<glyph unicode="f" d="M600 450v-200h-450v-250h-100v250h-50v200h50v250h500v-100h-400v-150h450z" />
<glyph unicode="g" d="M600 450v-200h-50v-150h-50v-50h-50v-50h-300v50h-50v50h-50v150h-50v200h50v150h50v50h50v50h300v-50h50v-50h50v-100h-100v50h-50v50h-200v-50h-50v-100h450zM450 150v100h-300v-100h50v-50h200v50h50z" />
<glyph unicode="h" d="M600 450v-200h-50v-250h-100v250h-300v-250h-100v250h-50v200h50v250h100v-250h300v250h100v-250h50z" />
<glyph unicode="i" d="M600 250h-250v-150h100v-100h-300v100h100v150h-250v200h250v150h-100v100h300v-100h-100v-150h250v-200z" />
<glyph unicode="j" d="M600 450v-200h-50v-150h-50v-50h-50v-50h-300v50h-50v50h-50v100h100v-50h50v-50h200v50h50v100h-450v200h450v250h100v-250h50z" />
<glyph unicode="k" d="M600 250h-200v-50h50v-50h50v-50h50v-100h-100v50h-50v50h-50v50h-50v50h-50v50h-100v-250h-100v250h-50v200h50v250h100v-250h100v50h50v50h50v50h50v50h50v50h100v-100h-50v-50h-50v-50h-50v-50h200v-200z" />
<glyph unicode="l" d="M600 250h-450v-150h400v-100h-500v250h-50v200h50v250h100v-250h450v-200z" />
<glyph unicode="m" d="M600 450v-200h-50v-250h-100v250h-300v-250h-100v250h-50v200h50v250h100v-100h50v-50h50v-50h100v50h50v50h50v100h100v-250h50z" />
<glyph unicode="n" d="M600 450v-200h-50v-250h-100v150h-50v50h-50v50h-200v-250h-100v250h-50v200h50v250h100v-150h50v-50h50v-50h200v250h100v-250h50z" />
<glyph unicode="o" d="M600 450v-200h-50v-150h-50v-50h-50v-50h-300v50h-50v50h-50v150h-50v200h50v150h50v50h50v50h300v-50h50v-50h50v-150h50zM150 550v-100h300v100h-50v50h-200v-50h-50zM450 150v100h-300v-100h50v-50h200v50h50z" />
<glyph unicode="p" d="M600 450v-200h-450v-250h-100v250h-50v200h50v250h400v-50h50v-50h50v-150h50zM150 600v-150h300v100h-50v50h-250z" />
<glyph unicode="q" d="M600 450v-200h-50v-100h-50v-50h50v-100h-100v50h-50v-50h-250v50h-50v50h-50v150h-50v200h50v150h50v50h50v50h300v-50h50v-50h50v-150h50zM150 550v-100h300v100h-50v50h-200v-50h-50zM350 100v50h-50v100h-150v-100h50v-50h150zM450 200v50h-50v-50h50z" />
<glyph unicode="r" d="M600 250h-200v-50h50v-50h50v-50h50v-100h-100v50h-50v50h-50v50h-50v50h-50v50h-100v-250h-100v250h-50v200h50v250h400v-50h50v-50h50v-150h50v-200zM150 600v-150h300v100h-50v50h-250z" />
<glyph unicode="s" d="M600 450v-200h-50v-150h-50v-50h-50v-50h-300v50h-50v50h-50v100h100v-50h50v-50h200v50h50v100h-450v200h50v150h50v50h50v50h300v-50h50v-50h50v-100h-100v50h-50v50h-200v-50h-50v-100h450z" />
<glyph unicode="t" d="M600 450v-200h-250v-250h-100v250h-250v200h250v150h-200v100h500v-100h-200v-150h250z" />
<glyph unicode="u" d="M600 450v-200h-50v-150h-50v-50h-50v-50h-300v50h-50v50h-50v150h-50v200h50v250h100v-250h300v250h100v-250h50zM450 150v100h-300v-100h50v-50h200v50h50z" />
<glyph unicode="v" d="M600 450v-200h-50v-100h-50v-50h-50v-50h-50v-50h-200v50h-50v50h-50v50h-50v100h-50v200h50v250h100v-250h300v250h100v-250h50zM450 200v50h-300v-50h50v-50h50v-50h100v50h50v50h50z" />
<glyph unicode="w" d="M600 450v-200h-50v-150h-50v-50h-50v-50h-100v50h-100v-50h-100v50h-50v50h-50v150h-50v200h50v250h100v-250h300v250h100v-250h50zM150 150h100v100h-100v-100zM450 150v100h-100v-100h100z" />
<glyph unicode="x" d="M600 250h-100v-50h50v-200h-100v150h-50v50h-50v50h-100v-50h-50v-50h-50v-150h-100v200h50v50h-100v200h100v50h-50v200h100v-150h50v-50h50v-50h100v50h50v50h50v150h100v-200h-50v-50h100v-200z" />
<glyph unicode="y" d="M600 450v-200h-250v-250h-100v250h-250v200h100v50h-50v200h100v-150h50v-50h50v-50h100v50h50v50h50v150h100v-200h-50v-50h100z" />
<glyph unicode="z" d="M200 150h-50v-50h400v-100h-500v200h50v50h-100v200h350v50h50v50h50v50h-400v100h500v-200h-50v-50h100v-200h-350v-50h-50v-50z" />
<glyph unicode="&#x25fc;" horiz-adv-x="700" d="M0 700h700v-700h-700v700z" />
</font>
</defs>
</svg>
