<?xml version="1.0" standalone="no"?>
<!DOCTYPE svg PUBLIC "-//W3C//DTD SVG 1.1//EN" "http://www.w3.org/Graphics/SVG/1.1/DTD/svg11.dtd" >
<svg xmlns="http://www.w3.org/2000/svg">
<metadata></metadata>
<defs>
<font id="camcorderinverse" horiz-adv-x="600" >
<font-face units-per-em="1000" ascent="850" descent="-150" />
<missing-glyph horiz-adv-x="400" />
<glyph unicode=" " horiz-adv-x="400" d="M0 -150v1000h400v-1000h-400z" />
<glyph unicode="!" horiz-adv-x="200" d="M50 100v-100h100v100h-100zM50 700v-500h100v500h-100zM0 -150v1000h200v-1000h-200z" />
<glyph unicode="&#x22;" horiz-adv-x="400" d="M250 700v-200h100v200h-100zM50 700v-200h100v200h-100zM0 -150v1000h400v-1000h-400z" />
<glyph unicode="#" d="M450 500v100h-100v-100h-100v100h-100v-100h-100v-100h100v-100h-100v-100h100v-100h100v100h100v-100h100v100h100v100h-100v100h100v100h-100zM350 300h-100v100h100v-100zM0 -150v1000h600v-1000h-600z" />
<glyph unicode="$" d="M500 600v50h-50v50h-100v100h-100v-100h-100v-50h-50v-50h-50v-200h50v-50h50v-50h100v-200h-50v50h-50v50h-100v-100h50v-50h50v-50h100v-100h100v100h100v50h50v50h50v200h-50v50h-50v50h-100v200h50v-50h50v-50h100v100h-50zM250 400h-50v50h-50v100h50v50h50v-200z M450 250v-100h-50v-50h-50v200h50v-50h50zM0 -150v1000h600v-1000h-600z" />
<glyph unicode="%" d="M350 200v-200h200v200h-200zM250 500v200h-200v-200h200zM450 700v-150h-50v-50h-50v-50h-50v-50h-50v-50h-50v-50h-50v-50h-50v-50h-50v-200h100v150h50v50h50v50h50v50h50v50h50v50h50v50h50v50h50v200h-100zM0 -150v1000h600v-1000h-600z" />
<glyph unicode="&#x26;" d="M450 350v-50h-100v50h-50v50h50v50h50v150h-50v50h-50v50h-150v-50h-50v-50h-50v-150h50v-50h50v-50h-50v-50h-50v-200h50v-50h50v-50h200v50h100v-50h100v100h-50v50h-50v50h50v50h50v100h-100zM350 150h-50v-50h-100v50h-50v100h50v50h50v-50h50v-50h50v-50zM150 500 v50h50v50h50v-50h50v-50h-50v-50h-50v50h-50zM0 -150v1000h600v-1000h-600z" />
<glyph unicode="'" horiz-adv-x="200" d="M50 700v-200h100v200h-100zM0 -150v1000h200v-1000h-200z" />
<glyph unicode="(" horiz-adv-x="400" d="M200 800v-50h-50v-50h-50v-50h-50v-600h50v-50h50v-50h50v-50h150v100h-100v50h-50v50h-50v500h50v50h50v50h100v100h-150zM0 -150v1000h400v-1000h-400z" />
<glyph unicode=")" horiz-adv-x="400" d="M300 650v50h-50v50h-50v50h-150v-100h100v-50h50v-50h50v-500h-50v-50h-50v-50h-100v-100h150v50h50v50h50v50h50v600h-50zM0 -150v1000h400v-1000h-400z" />
<glyph unicode="*" d="M500 550h-100v-50h-50v100h-100v-100h-50v50h-100v-100h50v-50h-100v-100h100v-50h-50v-100h100v50h50v-100h100v100h50v-50h100v100h-50v50h100v100h-100v50h50v100zM0 -150v1000h600v-1000h-600z" />
<glyph unicode="+" horiz-adv-x="500" d="M300 400v150h-100v-150h-150v-100h150v-150h100v150h150v100h-150zM0 -150v1000h500v-1000h-500z" />
<glyph unicode="," horiz-adv-x="200" d="M50 100v-200h100v200h-100zM0 -150v1000h200v-1000h-200z" />
<glyph unicode="-" horiz-adv-x="500" d="M50 400v-100h400v100h-400zM0 -150v1000h500v-1000h-500z" />
<glyph unicode="." horiz-adv-x="200" d="M50 100v-100h100v100h-100zM0 -150v1000h200v-1000h-200z" />
<glyph unicode="/" d="M450 700v-150h-50v-50h-50v-50h-50v-50h-50v-50h-50v-50h-50v-50h-50v-50h-50v-200h100v150h50v50h50v50h50v50h50v50h50v50h50v50h50v50h50v200h-100zM0 -150v1000h600v-1000h-600z" />
<glyph unicode="0" d="M500 600v50h-50v50h-300v-50h-50v-50h-50v-500h50v-50h50v-50h300v50h50v50h50v500h-50zM450 150h-50v-50h-200v100h50v50h50v50h50v50h50v50h50v-250zM150 550h50v50h200v-100h-50v-50h-50v-50h-50v-50h-50v-50h-50v250zM0 -150v1000h600v-1000h-600z" />
<glyph unicode="1" horiz-adv-x="400" d="M250 100v600h-100v-50h-50v-50h-50v-100h100v-400h-100v-100h300v100h-100zM0 -150v1000h400v-1000h-400z" />
<glyph unicode="2" d="M500 600v50h-50v50h-300v-50h-50v-50h-50v-100h100v50h50v50h200v-50h50v-100h-50v-50h-50v-50h-50v-50h-50v-50h-50v-50h-50v-50h-50v-50h-50v-100h500v100h-300v50h50v50h50v50h50v50h50v50h50v50h50v200h-50zM0 -150v1000h600v-1000h-600z" />
<glyph unicode="3" d="M500 600v50h-50v50h-300v-50h-50v-50h-50v-100h100v50h50v50h200v-50h50v-100h-50v-50h-150v-100h150v-50h50v-100h-50v-50h-200v50h-50v50h-100v-100h50v-50h50v-50h300v50h50v50h50v200h-50v100h50v200h-50zM0 -150v1000h600v-1000h-600z" />
<glyph unicode="4" d="M450 300v400h-100v-50h-50v-50h-50v-50h-50v-50h-50v-50h-50v-50h-50v-200h300v-200h100v200h100v100h-100zM150 350h50v50h50v50h50v50h50v-200h-200v50zM0 -150v1000h600v-1000h-600z" />
<glyph unicode="5" d="M50 700v-300h350v-50h50v-200h-50v-50h-200v50h-50v50h-100v-100h50v-50h50v-50h300v50h50v50h50v300h-50v50h-50v50h-300v100h400v100h-500zM0 -150v1000h600v-1000h-600z" />
<glyph unicode="6" d="M500 600v50h-50v50h-300v-50h-50v-50h-50v-500h50v-50h50v-50h300v50h50v50h50v200h-50v50h-50v50h-300v150h50v50h200v-50h50v-50h100v100h-50zM450 250v-100h-50v-50h-200v50h-50v150h250v-50h50zM0 -150v1000h600v-1000h-600z" />
<glyph unicode="7" d="M50 700v-100h400v-100h-50v-50h-50v-50h-50v-50h-50v-50h-50v-50h-50v-250h100v200h50v50h50v50h50v50h50v50h50v50h50v250h-500zM0 -150v1000h600v-1000h-600z" />
<glyph unicode="8" d="M500 600v50h-50v50h-300v-50h-50v-50h-50v-200h50v-100h-50v-200h50v-50h50v-50h300v50h50v50h50v200h-50v100h50v200h-50zM450 450h-50v-50h-200v50h-50v100h50v50h200v-50h50v-100zM450 250v-100h-50v-50h-200v50h-50v100h50v50h200v-50h50zM0 -150v1000h600v-1000 h-600z" />
<glyph unicode="9" d="M500 600v50h-50v50h-300v-50h-50v-50h-50v-200h50v-50h50v-50h300v-150h-50v-50h-200v50h-50v50h-100v-100h50v-50h50v-50h300v50h50v50h50v500h-50zM450 400h-250v50h-50v100h50v50h200v-50h50v-150zM0 -150v1000h600v-1000h-600z" />
<glyph unicode=":" horiz-adv-x="200" d="M51 500v-100h100v100h-100zM51 100v-100h100v100h-100zM0 -150v1000h200v-1000h-200z" />
<glyph unicode=";" horiz-adv-x="200" d="M50 100v-200h100v200h-100zM50 500v-100h100v100h-100zM0 -150v1000h200v-1000h-200z" />
<glyph unicode="&#x3c;" horiz-adv-x="400" d="M350 500v100h-100v-50h-50v-50h-50v-50h-50v-50h-50v-100h50v-50h50v-50h50v-50h50v-50h100v100h-50v50h-50v50h-50v100h50v50h50v50h50zM0 -150v1000h400v-1000h-400z" />
<glyph unicode="=" horiz-adv-x="500" d="M50 300v-100h400v100h-400zM50 500v-100h400v100h-400zM0 -150v1000h500v-1000h-500z" />
<glyph unicode="&#x3e;" horiz-adv-x="400" d="M350 400h-50v50h-50v50h-50v50h-50v50h-100v-100h50v-50h50v-50h50v-100h-50v-50h-50v-50h-50v-100h100v50h50v50h50v50h50v50h50v100zM0 -150v1000h400v-1000h-400z" />
<glyph unicode="?" d="M500 600v50h-50v50h-300v-50h-50v-50h-50v-100h100v50h50v50h200v-50h50v-100h-50v-50h-50v-50h-50v-50h-50v-100h100v50h50v50h50v50h50v50h50v200h-50zM250 100v-100h100v100h-100zM0 -150v1000h600v-1000h-600z" />
<glyph unicode="@" d="M550 250v350h-50v50h-50v50h-300v-50h-50v-50h-50v-500h50v-50h50v-50h350v100h-300v50h-50v400h50v50h200v-50h50v-250h-50v200h-150v-50h-50v-200h50v-50h250v50h50zM0 -150v1000h600v-1000h-600z" />
<glyph unicode="A" d="M500 500v50h-50v50h-50v50h-50v50h-100v-50h-50v-50h-50v-50h-50v-50h-50v-500h100v200h300v-200h100v500h-50zM450 300h-300v150h50v50h50v50h100v-50h50v-50h50v-150zM0 -150v1000h600v-1000h-600z" />
<glyph unicode="B" d="M500 600v50h-50v50h-400v-700h400v50h50v50h50v200h-50v100h50v200h-50zM450 450h-50v-50h-250v200h250v-50h50v-100zM450 250v-100h-50v-50h-250v200h250v-50h50zM0 -150v1000h600v-1000h-600z" />
<glyph unicode="C" d="M500 600v50h-50v50h-300v-50h-50v-50h-50v-500h50v-50h50v-50h300v50h50v50h50v100h-100v-50h-50v-50h-200v50h-50v400h50v50h200v-50h50v-50h100v100h-50zM0 -150v1000h600v-1000h-600z" />
<glyph unicode="D" d="M500 600v50h-50v50h-400v-700h400v50h50v50h50v500h-50zM450 150h-50v-50h-250v500h250v-50h50v-400zM0 -150v1000h600v-1000h-600z" />
<glyph unicode="E" d="M50 700v-700h500v100h-400v200h300v100h-300v200h400v100h-500zM0 -150v1000h600v-1000h-600z" />
<glyph unicode="F" d="M50 700v-700h100v300h300v100h-300v200h400v100h-500zM0 -150v1000h600v-1000h-600z" />
<glyph unicode="G" d="M500 600v50h-50v50h-300v-50h-50v-50h-50v-500h50v-50h50v-50h300v50h50v50h50v300h-300v-100h200v-150h-50v-50h-200v50h-50v400h50v50h200v-50h50v-50h100v100h-50zM0 -150v1000h600v-1000h-600z" />
<glyph unicode="H" d="M450 700v-300h-300v300h-100v-700h100v300h300v-300h100v700h-100zM0 -150v1000h600v-1000h-600z" />
<glyph unicode="I" horiz-adv-x="400" d="M50 700v-100h100v-500h-100v-100h300v100h-100v500h100v100h-300zM0 -150v1000h400v-1000h-400z" />
<glyph unicode="J" d="M450 700v-550h-50v-50h-200v50h-50v50h-100v-100h50v-50h50v-50h300v50h50v50h50v600h-100zM0 -150v1000h600v-1000h-600z" />
<glyph unicode="K" d="M450 700v-50h-50v-50h-50v-50h-50v-50h-50v-50h-50v-50h-50v300h-100v-700h100v300h50v-50h50v-50h50v-50h50v-50h50v-50h50v-50h100v100h-50v50h-50v50h-50v50h-50v50h-50v100h50v50h50v50h50v50h50v50h50v100h-100zM0 -150v1000h600v-1000h-600z" />
<glyph unicode="L" d="M150 100v600h-100v-700h500v100h-400zM0 -150v1000h600v-1000h-600z" />
<glyph unicode="M" d="M450 700v-100h-50v-50h-50v-50h-100v50h-50v50h-50v100h-100v-700h100v450h50v-50h50v-50h100v50h50v50h50v-450h100v700h-100zM0 -150v1000h600v-1000h-600z" />
<glyph unicode="N" d="M450 700v-400h-50v50h-50v50h-50v50h-50v50h-50v50h-50v150h-100v-700h100v400h50v-50h50v-50h50v-50h50v-50h50v-50h50v-150h100v700h-100zM0 -150v1000h600v-1000h-600z" />
<glyph unicode="O" d="M500 600v50h-50v50h-300v-50h-50v-50h-50v-500h50v-50h50v-50h300v50h50v50h50v500h-50zM450 150h-50v-50h-200v50h-50v400h50v50h200v-50h50v-400zM0 -150v1000h600v-1000h-600z" />
<glyph unicode="P" d="M500 600v50h-50v50h-400v-700h100v300h300v50h50v50h50v200h-50zM450 450h-50v-50h-250v200h250v-50h50v-100zM0 -150v1000h600v-1000h-600z" />
<glyph unicode="Q" d="M500 600v50h-50v50h-300v-50h-50v-50h-50v-500h50v-50h50v-50h250v50h50v-50h100v100h-50v50h50v450h-50zM450 200h-50v50h-100v-100h50v-50h-150v50h-50v400h50v50h200v-50h50v-350zM0 -150v1000h600v-1000h-600z" />
<glyph unicode="R" d="M500 600v50h-50v50h-400v-700h100v300h50v-50h50v-50h50v-50h50v-50h50v-50h50v-50h100v100h-50v50h-50v50h-50v50h-50v50h100v50h50v50h50v200h-50zM450 450h-50v-50h-250v200h250v-50h50v-100zM0 -150v1000h600v-1000h-600z" />
<glyph unicode="S" d="M500 600v50h-50v50h-300v-50h-50v-50h-50v-200h50v-50h50v-50h250v-50h50v-100h-50v-50h-200v50h-50v50h-100v-100h50v-50h50v-50h300v50h50v50h50v200h-50v50h-50v50h-250v50h-50v100h50v50h200v-50h50v-50h100v100h-50zM0 -150v1000h600v-1000h-600z" />
<glyph unicode="T" d="M50 700v-100h200v-600h100v600h200v100h-500zM0 -150v1000h600v-1000h-600z" />
<glyph unicode="U" d="M450 700v-550h-50v-50h-200v50h-50v550h-100v-600h50v-50h50v-50h300v50h50v50h50v600h-100zM0 -150v1000h600v-1000h-600z" />
<glyph unicode="V" d="M450 700v-500h-50v-50h-50v-50h-100v50h-50v50h-50v500h-100v-550h50v-50h50v-50h50v-50h200v50h50v50h50v50h50v550h-100zM0 -150v1000h600v-1000h-600z" />
<glyph unicode="W" d="M450 700v-550h-100v250h-100v-250h-100v550h-100v-600h50v-50h50v-50h100v50h100v-50h100v50h50v50h50v600h-100zM0 -150v1000h600v-1000h-600z" />
<glyph unicode="X" d="M450 700v-150h-50v-50h-50v-50h-100v50h-50v50h-50v150h-100v-200h50v-50h50v-50h50v-100h-50v-50h-50v-50h-50v-200h100v150h50v50h50v50h100v-50h50v-50h50v-150h100v200h-50v50h-50v50h-50v100h50v50h50v50h50v200h-100zM0 -150v1000h600v-1000h-600z" />
<glyph unicode="Y" d="M450 700v-150h-50v-50h-50v-50h-100v50h-50v50h-50v150h-100v-200h50v-50h50v-50h50v-50h50v-350h100v350h50v50h50v50h50v50h50v200h-100zM0 -150v1000h600v-1000h-600z" />
<glyph unicode="Z" d="M50 700v-100h400v-50h-50v-50h-50v-50h-50v-50h-50v-50h-50v-50h-50v-50h-50v-50h-50v-200h500v100h-400v50h50v50h50v50h50v50h50v50h50v50h50v50h50v50h50v200h-500zM0 -150v1000h600v-1000h-600z" />
<glyph unicode="[" horiz-adv-x="400" d="M50 800v-900h300v100h-200v700h200v100h-300zM0 -150v1000h400v-1000h-400z" />
<glyph unicode="\" d="M450 150v-150h100v200h-50v50h-50v50h-50v50h-50v50h-50v50h-50v50h-50v50h-50v150h-100v-200h50v-50h50v-50h50v-50h50v-50h50v-50h50v-50h50v-50h50zM0 -150v1000h600v-1000h-600z" />
<glyph unicode="]" horiz-adv-x="400" d="M350 -100v900h-300v-100h200v-700h-200v-100h300zM0 -150v1000h400v-1000h-400z" />
<glyph unicode="^" horiz-adv-x="400" d="M350 700h-50v50h-50v50h-100v-50h-50v-50h-50v-100h100v50h100v-50h100v100zM0 -150v1000h400v-1000h-400z" />
<glyph unicode="_" d="M50 0v-100h500v100h-500zM0 -150v1000h600v-1000h-600z" />
<glyph unicode="`" horiz-adv-x="300" d="M50 800v-100h50v-50h50v-50h100v100h-50v50h-50v50h-100zM0 -150v1000h300v-1000h-300z" />
<glyph unicode="a" d="M500 500v50h-50v50h-50v50h-50v50h-100v-50h-50v-50h-50v-50h-50v-50h-50v-500h100v200h300v-200h100v500h-50zM450 300h-300v150h50v50h50v50h100v-50h50v-50h50v-150zM0 -150v1000h600v-1000h-600z" />
<glyph unicode="b" d="M500 600v50h-50v50h-400v-700h400v50h50v50h50v200h-50v100h50v200h-50zM450 450h-50v-50h-250v200h250v-50h50v-100zM450 250v-100h-50v-50h-250v200h250v-50h50zM0 -150v1000h600v-1000h-600z" />
<glyph unicode="c" d="M500 600v50h-50v50h-300v-50h-50v-50h-50v-500h50v-50h50v-50h300v50h50v50h50v100h-100v-50h-50v-50h-200v50h-50v400h50v50h200v-50h50v-50h100v100h-50zM0 -150v1000h600v-1000h-600z" />
<glyph unicode="d" d="M500 600v50h-50v50h-400v-700h400v50h50v50h50v500h-50zM450 150h-50v-50h-250v500h250v-50h50v-400zM0 -150v1000h600v-1000h-600z" />
<glyph unicode="e" d="M50 700v-700h500v100h-400v200h300v100h-300v200h400v100h-500zM0 -150v1000h600v-1000h-600z" />
<glyph unicode="f" d="M50 700v-700h100v300h300v100h-300v200h400v100h-500zM0 -150v1000h600v-1000h-600z" />
<glyph unicode="g" d="M500 600v50h-50v50h-300v-50h-50v-50h-50v-500h50v-50h50v-50h300v50h50v50h50v300h-300v-100h200v-150h-50v-50h-200v50h-50v400h50v50h200v-50h50v-50h100v100h-50zM0 -150v1000h600v-1000h-600z" />
<glyph unicode="h" d="M450 700v-300h-300v300h-100v-700h100v300h300v-300h100v700h-100zM0 -150v1000h600v-1000h-600z" />
<glyph unicode="i" horiz-adv-x="400" d="M50 700v-100h100v-500h-100v-100h300v100h-100v500h100v100h-300zM0 -150v1000h400v-1000h-400z" />
<glyph unicode="j" d="M450 700v-550h-50v-50h-200v50h-50v50h-100v-100h50v-50h50v-50h300v50h50v50h50v600h-100zM0 -150v1000h600v-1000h-600z" />
<glyph unicode="k" d="M450 700v-50h-50v-50h-50v-50h-50v-50h-50v-50h-50v-50h-50v300h-100v-700h100v300h50v-50h50v-50h50v-50h50v-50h50v-50h50v-50h100v100h-50v50h-50v50h-50v50h-50v50h-50v100h50v50h50v50h50v50h50v50h50v100h-100zM0 -150v1000h600v-1000h-600z" />
<glyph unicode="l" d="M150 100v600h-100v-700h500v100h-400zM0 -150v1000h600v-1000h-600z" />
<glyph unicode="m" d="M450 700v-100h-50v-50h-50v-50h-100v50h-50v50h-50v100h-100v-700h100v450h50v-50h50v-50h100v50h50v50h50v-450h100v700h-100zM0 -150v1000h600v-1000h-600z" />
<glyph unicode="n" d="M450 700v-400h-50v50h-50v50h-50v50h-50v50h-50v50h-50v150h-100v-700h100v400h50v-50h50v-50h50v-50h50v-50h50v-50h50v-150h100v700h-100zM0 -150v1000h600v-1000h-600z" />
<glyph unicode="o" d="M500 600v50h-50v50h-300v-50h-50v-50h-50v-500h50v-50h50v-50h300v50h50v50h50v500h-50zM450 150h-50v-50h-200v50h-50v400h50v50h200v-50h50v-400zM0 -150v1000h600v-1000h-600z" />
<glyph unicode="p" d="M500 600v50h-50v50h-400v-700h100v300h300v50h50v50h50v200h-50zM450 450h-50v-50h-250v200h250v-50h50v-100zM0 -150v1000h600v-1000h-600z" />
<glyph unicode="q" d="M500 600v50h-50v50h-300v-50h-50v-50h-50v-500h50v-50h50v-50h250v50h50v-50h100v100h-50v50h50v450h-50zM450 200h-50v50h-100v-100h50v-50h-150v50h-50v400h50v50h200v-50h50v-350zM0 -150v1000h600v-1000h-600z" />
<glyph unicode="r" d="M500 600v50h-50v50h-400v-700h100v300h50v-50h50v-50h50v-50h50v-50h50v-50h50v-50h100v100h-50v50h-50v50h-50v50h-50v50h100v50h50v50h50v200h-50zM450 450h-50v-50h-250v200h250v-50h50v-100zM0 -150v1000h600v-1000h-600z" />
<glyph unicode="s" d="M500 600v50h-50v50h-300v-50h-50v-50h-50v-200h50v-50h50v-50h250v-50h50v-100h-50v-50h-200v50h-50v50h-100v-100h50v-50h50v-50h300v50h50v50h50v200h-50v50h-50v50h-250v50h-50v100h50v50h200v-50h50v-50h100v100h-50zM0 -150v1000h600v-1000h-600z" />
<glyph unicode="t" d="M50 700v-100h200v-600h100v600h200v100h-500zM0 -150v1000h600v-1000h-600z" />
<glyph unicode="u" d="M450 700v-550h-50v-50h-200v50h-50v550h-100v-600h50v-50h50v-50h300v50h50v50h50v600h-100zM0 -150v1000h600v-1000h-600z" />
<glyph unicode="v" d="M450 700v-500h-50v-50h-50v-50h-100v50h-50v50h-50v500h-100v-550h50v-50h50v-50h50v-50h200v50h50v50h50v50h50v550h-100zM0 -150v1000h600v-1000h-600z" />
<glyph unicode="w" d="M450 700v-550h-100v250h-100v-250h-100v550h-100v-600h50v-50h50v-50h100v50h100v-50h100v50h50v50h50v600h-100zM0 -150v1000h600v-1000h-600z" />
<glyph unicode="x" d="M450 700v-150h-50v-50h-50v-50h-100v50h-50v50h-50v150h-100v-200h50v-50h50v-50h50v-100h-50v-50h-50v-50h-50v-200h100v150h50v50h50v50h100v-50h50v-50h50v-150h100v200h-50v50h-50v50h-50v100h50v50h50v50h50v200h-100zM0 -150v1000h600v-1000h-600z" />
<glyph unicode="y" d="M450 700v-150h-50v-50h-50v-50h-100v50h-50v50h-50v150h-100v-200h50v-50h50v-50h50v-50h50v-350h100v350h50v50h50v50h50v50h50v200h-100zM0 -150v1000h600v-1000h-600z" />
<glyph unicode="z" d="M50 700v-100h400v-50h-50v-50h-50v-50h-50v-50h-50v-50h-50v-50h-50v-50h-50v-50h-50v-200h500v100h-400v50h50v50h50v50h50v50h50v50h50v50h50v50h50v50h50v200h-500zM0 -150v1000h600v-1000h-600z" />
<glyph unicode="{" horiz-adv-x="500" d="M450 800h-200v-50h-50v-50h-50v-250h-50v-50h-50v-100h50v-50h50v-250h50v-50h50v-50h200v100h-150v50h-50v250h-50v100h50v250h50v50h150v100zM0 -150v1000h500v-1000h-500z" />
<glyph unicode="|" horiz-adv-x="200" d="M150 800h-100v-900h100v900zM0 -150v1000h200v-1000h-200z" />
<glyph unicode="}" horiz-adv-x="500" d="M50 -100h200v50h50v50h50v250h50v50h50v100h-50v50h-50v250h-50v50h-50v50h-200v-100h150v-50h50v-250h50v-100h-50v-250h-50v-50h-150v-100zM0 -150v1000h500v-1000h-500z" />
<glyph unicode="~" d="M50 350v-100h100v50h50v50h50v-50h50v-50h150v50h50v50h50v100h-100v-50h-50v-50h-50v50h-50v50h-150v-50h-50v-50h-50zM0 -150v1000h600v-1000h-600z" />
<glyph unicode="&#xa1;" horiz-adv-x="200" d="M150 600v100h-100v-100h100zM150 0v500h-100v-500h100zM0 -150v1000h200v-1000h-200z" />
<glyph unicode="&#xa2;" d="M550 500h-50v50h-50v50h-100v100h-100v-100h-100v-50h-50v-50h-50v-300h50v-50h50v-50h100v-100h100v100h100v50h50v50h50v100h-100v-50h-50v-50h-50v300h50v-50h50v-50h100v100zM250 500v-300h-50v50h-50v200h50v50h50zM0 -150v1000h600v-1000h-600z" />
<glyph unicode="&#xa3;" d="M550 500v100h-50v50h-50v50h-200v-50h-50v-50h-50v-200h-100v-100h100v-100h-50v-50h-50v-150h500v100h-350v50h50v150h200v100h-200v150h50v50h100v-50h50v-50h100zM0 -150v1000h600v-1000h-600z" />
<glyph unicode="&#xa4;" d="M550 600h-100v-50h-50v50h-200v-50h-50v50h-100v-100h50v-50h-50v-200h50v-50h-50v-100h100v50h50v-50h200v50h50v-50h100v100h-50v50h50v200h-50v50h50v100zM450 400v-100h-50v-50h-50v-50h-100v50h-50v50h-50v100h50v50h50v50h100v-50h50v-50h50zM0 -150v1000h600 v-1000h-600z" />
<glyph unicode="&#xa5;" d="M550 500v200h-100v-150h-50v-50h-50v-50h-100v50h-50v50h-50v150h-100v-200h50v-50h50v-50h50v-50h50v-50h-150v-100h150v-200h100v200h150v100h-150v50h50v50h50v50h50v50h50zM0 -150v1000h600v-1000h-600z" />
<glyph unicode="&#xa6;" horiz-adv-x="200" d="M150 400v400h-100v-400h100zM150 -100v400h-100v-400h100zM0 -150v1000h200v-1000h-200z" />
<glyph unicode="&#xa8;" horiz-adv-x="400" d="M250 800v-100h100v100h-100zM50 800v-100h100v100h-100zM0 -150v1000h400v-1000h-400z" />
<glyph unicode="&#xa9;" d="M500 600v50h-50v50h-300v-50h-50v-50h-50v-500h50v-50h50v-50h300v50h50v50h50v500h-50zM450 150h-50v-50h-200v50h-50v50h50v-50h200v50h50v-50zM450 300h-100v-50h-100v200h100v-50h100v-100zM450 500h-50v50h-200v-50h-50v50h50v50h200v-50h50v-50zM0 -150v1000h600 v-1000h-600z" />
<glyph unicode="&#xaa;" horiz-adv-x="400" d="M300 650v50h-200v-50h-50v-350h100v100h100v-100h100v350h-50zM250 500h-100v100h100v-100zM0 -150v1000h400v-1000h-400z" />
<glyph unicode="&#xab;" horiz-adv-x="500" d="M0 -150v1000h500v-1000h-500zM450 400v100h-100v-50h-50v-50h-50v-100h50v-50h50v-50h100v100h-50v100h50zM250 400v100h-100v-50h-50v-50h-50v-100h50v-50h50v-50h100v100h-50v100h50z" />
<glyph unicode="&#xac;" horiz-adv-x="500" d="M450 400h-400v-100h300v-100h100v200zM0 -150v1000h500v-1000h-500z" />
<glyph unicode="&#xae;" d="M500 600v50h-50v50h-300v-50h-50v-50h-50v-500h50v-50h50v-50h300v50h50v50h50v500h-50zM400 100h-200v50h50v100h50v-50h50v-50h50v-50zM250 350v100h100v-100h-100zM450 250h-50v50h50v-50zM450 500h-50v50h-200v50h200v-50h50v-50zM0 -150v1000h600v-1000h-600z" />
<glyph unicode="&#xaf;" horiz-adv-x="400" d="M350 700h-300v-100h300v100zM0 -150v1000h400v-1000h-400z" />
<glyph unicode="&#xb0;" horiz-adv-x="400" d="M300 650v50h-200v-50h-50v-200h50v-50h200v50h50v200h-50zM250 500h-100v100h100v-100zM0 -150v1000h400v-1000h-400z" />
<glyph unicode="&#xb1;" horiz-adv-x="500" d="M450 0v100h-400v-100h400zM450 300v100h-150v150h-100v-150h-150v-100h150v-150h100v150h150zM0 -150v1000h500v-1000h-500z" />
<glyph unicode="&#xb2;" horiz-adv-x="400" d="M350 650h-50v50h-200v-50h-50v-100h100v50h100v-50h-50v-50h-50v-50h-50v-50h-50v-100h300v100h-100v50h50v50h50v150zM0 -150v1000h400v-1000h-400z" />
<glyph unicode="&#xb3;" horiz-adv-x="400" d="M350 650h-50v50h-200v-50h-50v-100h100v50h100v-50h-100v-100h100v-50h-100v50h-100v-100h50v-50h200v50h50v300zM0 -150v1000h400v-1000h-400z" />
<glyph unicode="&#xb4;" horiz-adv-x="300" d="M250 700v100h-100v-50h-50v-50h-50v-100h100v50h50v50h50zM0 -150v1000h300v-1000h-300z" />
<glyph unicode="&#xb5;" d="M550 600h-100v-350h-50v-50h-200v50h-50v350h-100v-700h100v200h300v50h50v50h50v400zM0 -150v1000h600v-1000h-600z" />
<glyph unicode="&#xb6;" d="M550 700h-400v-50h-50v-50h-50v-200h50v-50h50v-50h100v-300h100v600h100v-600h100v700zM0 -150v1000h600v-1000h-600z" />
<glyph unicode="&#xb8;" horiz-adv-x="300" d="M50 0v-100h150v50h50v100h-50v50h-100v-50h50v-50h-100zM0 -150v1000h300v-1000h-300z" />
<glyph unicode="&#xb9;" horiz-adv-x="300" d="M250 700h-100v-50h-50v-50h-50v-100h100v-200h100v400zM0 -150v1000h300v-1000h-300z" />
<glyph unicode="&#xba;" horiz-adv-x="400" d="M300 650v50h-200v-50h-50v-300h50v-50h200v50h50v300h-50zM250 400h-100v200h100v-200zM0 -150v1000h400v-1000h-400z" />
<glyph unicode="&#xbb;" horiz-adv-x="500" d="M0 -150v1000h500v-1000h-500zM250 300v100h-50v50h-50v50h-100v-100h50v-100h-50v-100h100v50h50v50h50zM450 300v100h-50v50h-50v50h-100v-100h50v-100h-50v-100h100v50h50v50h50z" />
<glyph unicode="&#xbc;" d="M550 400h-100v-50h-50v-50h-50v-50h-50v-50h-50v-100h200v-100h100v400zM550 600h-100v-50h-50v-50h-50v-50h-50v-50h-50v300h-100v-50h-50v-50h-50v-100h100v-250h-50v-50h-50v-100h100v50h50v50h50v50h50v50h50v50h50v50h50v50h50v50h50v100zM0 -150v1000h600v-1000 h-600z" />
<glyph unicode="&#xbd;" d="M550 600h-100v-50h-50v-50h-50v-50h-50v-50h-50v300h-100v-50h-50v-50h-50v-100h100v-250h-50v-50h-50v-100h100v50h50v50h50v50h100v50h100v-50h-50v-50h-50v-50h-50v-50h-50v-100h300v100h-100v50h50v50h50v150h-50v50h-50v50h50v50h50v100zM0 -150v1000h600v-1000 h-600z" />
<glyph unicode="&#xbe;" d="M550 400h-100v-50h-50v-50h-50v-50h-50v-50h-50v-100h200v-100h100v400zM500 550h-100v-50h-50v150h-50v50h-200v-50h-50v-100h100v50h100v-50h-100v-100h100v-50h-100v50h-100v-100h50v-50h50v-50h-50v-50h-50v-100h100v50h50v50h50v50h50v50h50v50h50v50h50v50h50v100z M0 -150v1000h600v-1000h-600z" />
<glyph unicode="&#xbf;" d="M100 100v-50h50v-50h300v50h50v50h50v100h-100v-50h-50v-50h-200v50h-50v100h50v50h50v50h50v50h50v100h-100v-50h-50v-50h-50v-50h-50v-50h-50v-200h50zM350 600v100h-100v-100h100zM0 -150v1000h600v-1000h-600z" />
<glyph unicode="&#xc0;" d="M450 300h-300v100h50v50h50v50h100v-50h50v-50h50v-100zM150 800v-100h50v-50h50v-50h-50v-50h-50v-50h-50v-50h-50v-450h100v200h300v-200h100v450h-50v50h-50v50h-50v50h-50v100h-50v50h-50v50h-100zM0 -150v1000h600v-1000h-600z" />
<glyph unicode="&#xc1;" d="M450 300h-300v100h50v50h50v50h100v-50h50v-50h50v-100zM450 700v100h-100v-50h-50v-50h-50v-100h-50v-50h-50v-50h-50v-50h-50v-450h100v200h300v-200h100v450h-50v50h-50v50h-50v50h-50v50h50v50h50zM0 -150v1000h600v-1000h-600z" />
<glyph unicode="&#xc2;" d="M250 600v50h100v-50h-100zM450 300h-300v100h50v50h50v50h100v-50h50v-50h50v-100zM500 450v50h-50v50h-50v50h50v100h-50v50h-50v50h-100v-50h-50v-50h-50v-100h50v-50h-50v-50h-50v-50h-50v-450h100v200h300v-200h100v450h-50zM0 -150v1000h600v-1000h-600z" />
<glyph unicode="&#xc3;" d="M450 300h-300v100h50v50h50v50h100v-50h50v-50h50v-100zM50 700v-100h100v50h50v50h50v-50h50v-50h-100v-50h-50v-50h-50v-50h-50v-450h100v200h300v-200h100v450h-50v50h-50v50h-50v50h50v50h50v50h50v100h-100v-50h-50v-50h-50v50h-50v50h-150v-50h-50v-50h-50zM0 -150 v1000h600v-1000h-600z" />
<glyph unicode="&#xc4;" d="M350 800v-100h100v100h-100zM150 800v-100h100v100h-100zM500 450v50h-50v50h-50v50h-200v-50h-50v-50h-50v-50h-50v-450h100v200h300v-200h100v450h-50zM450 300h-300v100h50v50h50v50h100v-50h50v-50h50v-100zM0 -150v1000h600v-1000h-600z" />
<glyph unicode="&#xc5;" d="M450 300h-300v100h50v50h50v50h100v-50h50v-50h50v-100zM350 750v50h-100v-50h-50v-100h50v-50h-50v-50h-50v-50h-50v-50h-50v-450h100v200h300v-200h100v450h-50v50h-50v50h-50v50h-50v50h50v100h-50zM0 -150v1000h600v-1000h-600z" />
<glyph unicode="&#xc6;" d="M550 700h-300v-50h-50v-50h-50v-50h-50v-50h-50v-500h100v200h100v-200h300v100h-200v200h150v100h-150v200h200v100zM250 500v-200h-100v150h50v50h50zM0 -150v1000h600v-1000h-600z" />
<glyph unicode="&#xc7;" d="M200 0v-100h150v50h50v100h-50v50h100v50h50v50h50v100h-100v-50h-50v-50h-200v50h-50v300h50v50h200v-50h50v-50h100v100h-50v50h-50v50h-300v-50h-50v-50h-50v-400h50v-50h50v-50h100v-50h50v-50h-100zM0 -150v1000h600v-1000h-600z" />
<glyph unicode="&#xc8;" d="M150 800v-100h50v-50h50v-50h-200v-600h500v100h-400v200h300v100h-300v100h400v100h-200v100h-50v50h-50v50h-100zM0 -150v1000h600v-1000h-600z" />
<glyph unicode="&#xc9;" d="M450 700v100h-100v-50h-50v-50h-50v-100h-200v-600h500v100h-400v200h300v100h-300v100h400v100h-200v50h50v50h50zM0 -150v1000h600v-1000h-600z" />
<glyph unicode="&#xca;" d="M250 600v50h100v-50h-100zM50 600v-600h500v100h-400v200h300v100h-300v100h400v100h-100v100h-50v50h-50v50h-100v-50h-50v-50h-50v-100h-100zM0 -150v1000h600v-1000h-600z" />
<glyph unicode="&#xcb;" d="M350 800v-100h100v100h-100zM150 800v-100h100v100h-100zM50 600v-600h500v100h-400v200h300v100h-300v100h400v100h-500zM0 -150v1000h600v-1000h-600z" />
<glyph unicode="&#xcc;" horiz-adv-x="400" d="M50 800v-100h50v-50h50v-50h-100v-100h100v-400h-100v-100h300v100h-100v400h100v100h-100v100h-50v50h-50v50h-100zM0 -150v1000h400v-1000h-400z" />
<glyph unicode="&#xcd;" horiz-adv-x="400" d="M350 700v100h-100v-50h-50v-50h-50v-100h-100v-100h100v-400h-100v-100h300v100h-100v400h100v100h-100v50h50v50h50zM0 -150v1000h400v-1000h-400z" />
<glyph unicode="&#xce;" horiz-adv-x="400" d="M150 600v50h100v-50h-100zM50 700v-200h100v-400h-100v-100h300v100h-100v400h100v200h-50v50h-50v50h-100v-50h-50v-50h-50zM0 -150v1000h400v-1000h-400z" />
<glyph unicode="&#xcf;" horiz-adv-x="400" d="M250 800v-100h100v100h-100zM50 800v-100h100v100h-100zM50 600v-100h100v-400h-100v-100h300v100h-100v400h100v100h-300zM0 -150v1000h400v-1000h-400z" />
<glyph unicode="&#xd0;" d="M550 600h-50v50h-50v50h-300v-300h-100v-100h100v-300h300v50h50v50h50v500zM450 550v-400h-50v-50h-150v200h100v100h-100v200h150v-50h50zM0 -150v1000h600v-1000h-600z" />
<glyph unicode="&#xd1;" d="M300 650v-50h150v-300h-50v50h-50v50h-50v50h-50v50h-50v50h-50v100h50v50h50v-50h50zM450 600v50h50v50h50v100h-100v-50h-50v-50h-50v50h-50v50h-150v-50h-50v-50h-50v-700h100v400h50v-50h50v-50h50v-50h50v-50h50v-50h50v-150h100v600h-100zM0 -150v1000h600v-1000 h-600z" />
<glyph unicode="&#xd2;" d="M450 150h-50v-50h-200v50h-50v300h50v50h200v-50h50v-300zM150 800v-100h50v-50h50v-50h-100v-50h-50v-50h-50v-400h50v-50h50v-50h300v50h50v50h50v400h-50v50h-50v50h-100v100h-50v50h-50v50h-100zM0 -150v1000h600v-1000h-600z" />
<glyph unicode="&#xd3;" d="M200 150h-50v300h50v50h200v-50h50v-300h-50v-50h-200v50zM450 700v100h-100v-50h-50v-50h-50v-100h-100v-50h-50v-50h-50v-400h50v-50h50v-50h300v50h50v50h50v400h-50v50h-50v50h-100v50h50v50h50zM0 -150v1000h600v-1000h-600z" />
<glyph unicode="&#xd4;" d="M250 600v50h100v-50h-100zM450 150h-50v-50h-200v50h-50v300h50v50h200v-50h50v-300zM500 500v50h-50v150h-50v50h-50v50h-100v-50h-50v-50h-50v-150h-50v-50h-50v-400h50v-50h50v-50h300v50h50v50h50v400h-50zM0 -150v1000h600v-1000h-600z" />
<glyph unicode="&#xd5;" d="M450 150h-50v-50h-200v50h-50v300h50v50h200v-50h50v-300zM150 600v-50h-50v-50h-50v-400h50v-50h50v-50h300v50h50v50h50v400h-50v50h-50v100h50v50h50v100h-100v-50h-50v-50h-50v50h-50v50h-150v-50h-50v-50h-50v-100h100zM300 650v-50h-150v50h50v50h50v-50h50z M0 -150v1000h600v-1000h-600z" />
<glyph unicode="&#xd6;" d="M500 500v50h-50v50h-300v-50h-50v-50h-50v-400h50v-50h50v-50h300v50h50v50h50v400h-50zM450 150h-50v-50h-200v50h-50v300h50v50h200v-50h50v-300zM350 800v-100h100v100h-100zM150 800v-100h100v100h-100zM0 -150v1000h600v-1000h-600z" />
<glyph unicode="&#xd7;" d="M450 600v-50h-50v-50h-50v-50h-100v50h-50v50h-50v50h-100v-100h50v-50h50v-50h50v-100h-50v-50h-50v-50h-50v-100h100v50h50v50h50v50h100v-50h50v-50h50v-50h100v100h-50v50h-50v50h-50v100h50v50h50v50h50v100h-100zM0 -150v1000h600v-1000h-600z" />
<glyph unicode="&#xd8;" d="M400 600v-100h-50v-50h-50v-50h-50v-50h-50v-50h-50v250h50v50h200zM450 150h-50v-50h-200v100h50v50h50v50h50v50h50v50h50v-250zM550 700h-400v-50h-50v-50h-50v-600h400v50h50v50h50v600zM0 -150v1000h600v-1000h-600z" />
<glyph unicode="&#xd9;" d="M150 800v-100h50v-50h50v-50h100v100h-50v50h-50v50h-100zM450 600v-450h-50v-50h-200v50h-50v450h-100v-500h50v-50h50v-50h300v50h50v50h50v500h-100zM0 -150v1000h600v-1000h-600z" />
<glyph unicode="&#xda;" d="M450 700v100h-100v-50h-50v-50h-50v-100h100v50h50v50h50zM450 600v-450h-50v-50h-200v50h-50v450h-100v-500h50v-50h50v-50h300v50h50v50h50v500h-100zM0 -150v1000h600v-1000h-600z" />
<glyph unicode="&#xdb;" d="M450 600v100h-50v50h-50v50h-100v-50h-50v-50h-50v-100h-100v-500h50v-50h50v-50h300v50h50v50h50v500h-100zM150 600h100v50h100v-50h100v-450h-50v-50h-200v50h-50v450zM0 -150v1000h600v-1000h-600z" />
<glyph unicode="&#xdc;" d="M350 800v-100h100v100h-100zM150 800v-100h100v100h-100zM450 600v-450h-50v-50h-200v50h-50v450h-100v-500h50v-50h50v-50h300v50h50v50h50v500h-100zM0 -150v1000h600v-1000h-600z" />
<glyph unicode="&#xdd;" d="M450 700v100h-100v-50h-50v-50h-50v-100h100v50h50v50h50zM450 600v-150h-50v-50h-50v-50h-100v50h-50v50h-50v150h-100v-200h50v-50h50v-50h50v-50h50v-250h100v250h50v50h50v50h50v50h50v200h-100zM0 -150v1000h600v-1000h-600z" />
<glyph unicode="&#xde;" horiz-adv-x="500" d="M450 450h-50v50h-50v50h-200v150h-100v-700h100v150h200v50h50v50h50v200zM350 300h-50v-50h-150v200h150v-50h50v-100zM0 -150v1000h500v-1000h-500z" />
<glyph unicode="&#xdf;" d="M550 100v150h-50v50h-50v50h-50v50h50v50h50v150h-50v50h-50v50h-250v-50h-50v-50h-50v-600h100v550h50v50h150v-50h50v-50h-50v-50h-50v-150h50v-50h50v-50h50v-50h-50v-50h-150v-100h200v50h50v50h50zM0 -150v1000h600v-1000h-600z" />
<glyph unicode="&#xe0;" d="M450 300h-300v100h50v50h50v50h100v-50h50v-50h50v-100zM150 800v-100h50v-50h50v-50h-50v-50h-50v-50h-50v-50h-50v-450h100v200h300v-200h100v450h-50v50h-50v50h-50v50h-50v100h-50v50h-50v50h-100zM0 -150v1000h600v-1000h-600z" />
<glyph unicode="&#xe1;" d="M450 300h-300v100h50v50h50v50h100v-50h50v-50h50v-100zM450 700v100h-100v-50h-50v-50h-50v-100h-50v-50h-50v-50h-50v-50h-50v-450h100v200h300v-200h100v450h-50v50h-50v50h-50v50h-50v50h50v50h50zM0 -150v1000h600v-1000h-600z" />
<glyph unicode="&#xe2;" d="M250 600v50h100v-50h-100zM450 300h-300v100h50v50h50v50h100v-50h50v-50h50v-100zM500 450v50h-50v50h-50v50h50v100h-50v50h-50v50h-100v-50h-50v-50h-50v-100h50v-50h-50v-50h-50v-50h-50v-450h100v200h300v-200h100v450h-50zM0 -150v1000h600v-1000h-600z" />
<glyph unicode="&#xe3;" d="M450 300h-300v100h50v50h50v50h100v-50h50v-50h50v-100zM50 700v-100h100v50h50v50h50v-50h50v-50h-100v-50h-50v-50h-50v-50h-50v-450h100v200h300v-200h100v450h-50v50h-50v50h-50v50h50v50h50v50h50v100h-100v-50h-50v-50h-50v50h-50v50h-150v-50h-50v-50h-50zM0 -150 v1000h600v-1000h-600z" />
<glyph unicode="&#xe4;" d="M350 800v-100h100v100h-100zM150 800v-100h100v100h-100zM500 450v50h-50v50h-50v50h-200v-50h-50v-50h-50v-50h-50v-450h100v200h300v-200h100v450h-50zM450 300h-300v100h50v50h50v50h100v-50h50v-50h50v-100zM0 -150v1000h600v-1000h-600z" />
<glyph unicode="&#xe5;" d="M450 300h-300v100h50v50h50v50h100v-50h50v-50h50v-100zM350 750v50h-100v-50h-50v-100h50v-50h-50v-50h-50v-50h-50v-50h-50v-450h100v200h300v-200h100v450h-50v50h-50v50h-50v50h-50v50h50v100h-50zM0 -150v1000h600v-1000h-600z" />
<glyph unicode="&#xe6;" d="M550 700h-300v-50h-50v-50h-50v-50h-50v-50h-50v-500h100v200h100v-200h300v100h-200v200h150v100h-150v200h200v100zM250 500v-200h-100v150h50v50h50zM0 -150v1000h600v-1000h-600z" />
<glyph unicode="&#xe7;" d="M200 0v-100h150v50h50v100h-50v50h100v50h50v50h50v100h-100v-50h-50v-50h-200v50h-50v300h50v50h200v-50h50v-50h100v100h-50v50h-50v50h-300v-50h-50v-50h-50v-400h50v-50h50v-50h100v-50h50v-50h-100zM0 -150v1000h600v-1000h-600z" />
<glyph unicode="&#xe8;" d="M150 800v-100h50v-50h50v-50h-200v-600h500v100h-400v200h300v100h-300v100h400v100h-200v100h-50v50h-50v50h-100zM0 -150v1000h600v-1000h-600z" />
<glyph unicode="&#xe9;" d="M450 700v100h-100v-50h-50v-50h-50v-100h-200v-600h500v100h-400v200h300v100h-300v100h400v100h-200v50h50v50h50zM0 -150v1000h600v-1000h-600z" />
<glyph unicode="&#xea;" d="M250 600v50h100v-50h-100zM50 600v-600h500v100h-400v200h300v100h-300v100h400v100h-100v100h-50v50h-50v50h-100v-50h-50v-50h-50v-100h-100zM0 -150v1000h600v-1000h-600z" />
<glyph unicode="&#xeb;" d="M350 800v-100h100v100h-100zM150 800v-100h100v100h-100zM50 600v-600h500v100h-400v200h300v100h-300v100h400v100h-500zM0 -150v1000h600v-1000h-600z" />
<glyph unicode="&#xec;" horiz-adv-x="400" d="M50 800v-100h50v-50h50v-50h-100v-100h100v-400h-100v-100h300v100h-100v400h100v100h-100v100h-50v50h-50v50h-100zM0 -150v1000h400v-1000h-400z" />
<glyph unicode="&#xed;" horiz-adv-x="400" d="M350 700v100h-100v-50h-50v-50h-50v-100h-100v-100h100v-400h-100v-100h300v100h-100v400h100v100h-100v50h50v50h50zM0 -150v1000h400v-1000h-400z" />
<glyph unicode="&#xee;" horiz-adv-x="400" d="M150 600v50h100v-50h-100zM50 700v-200h100v-400h-100v-100h300v100h-100v400h100v200h-50v50h-50v50h-100v-50h-50v-50h-50zM0 -150v1000h400v-1000h-400z" />
<glyph unicode="&#xef;" horiz-adv-x="400" d="M250 800v-100h100v100h-100zM50 800v-100h100v100h-100zM50 600v-100h100v-400h-100v-100h300v100h-100v400h100v100h-300zM0 -150v1000h400v-1000h-400z" />
<glyph unicode="&#xf0;" d="M550 600h-50v50h-50v50h-300v-300h-100v-100h100v-300h300v50h50v50h50v500zM450 550v-400h-50v-50h-150v200h100v100h-100v200h150v-50h50zM0 -150v1000h600v-1000h-600z" />
<glyph unicode="&#xf1;" d="M300 650v-50h150v-300h-50v50h-50v50h-50v50h-50v50h-50v50h-50v100h50v50h50v-50h50zM450 600v50h50v50h50v100h-100v-50h-50v-50h-50v50h-50v50h-150v-50h-50v-50h-50v-700h100v400h50v-50h50v-50h50v-50h50v-50h50v-50h50v-150h100v600h-100zM0 -150v1000h600v-1000 h-600z" />
<glyph unicode="&#xf2;" d="M450 150h-50v-50h-200v50h-50v300h50v50h200v-50h50v-300zM150 800v-100h50v-50h50v-50h-100v-50h-50v-50h-50v-400h50v-50h50v-50h300v50h50v50h50v400h-50v50h-50v50h-100v100h-50v50h-50v50h-100zM0 -150v1000h600v-1000h-600z" />
<glyph unicode="&#xf3;" d="M200 150h-50v300h50v50h200v-50h50v-300h-50v-50h-200v50zM450 700v100h-100v-50h-50v-50h-50v-100h-100v-50h-50v-50h-50v-400h50v-50h50v-50h300v50h50v50h50v400h-50v50h-50v50h-100v50h50v50h50zM0 -150v1000h600v-1000h-600z" />
<glyph unicode="&#xf4;" d="M250 600v50h100v-50h-100zM450 150h-50v-50h-200v50h-50v300h50v50h200v-50h50v-300zM500 500v50h-50v150h-50v50h-50v50h-100v-50h-50v-50h-50v-150h-50v-50h-50v-400h50v-50h50v-50h300v50h50v50h50v400h-50zM0 -150v1000h600v-1000h-600z" />
<glyph unicode="&#xf5;" d="M450 150h-50v-50h-200v50h-50v300h50v50h200v-50h50v-300zM150 600v-50h-50v-50h-50v-400h50v-50h50v-50h300v50h50v50h50v400h-50v50h-50v100h50v50h50v100h-100v-50h-50v-50h-50v50h-50v50h-150v-50h-50v-50h-50v-100h100zM300 650v-50h-150v50h50v50h50v-50h50z M0 -150v1000h600v-1000h-600z" />
<glyph unicode="&#xf6;" d="M500 500v50h-50v50h-300v-50h-50v-50h-50v-400h50v-50h50v-50h300v50h50v50h50v400h-50zM450 150h-50v-50h-200v50h-50v300h50v50h200v-50h50v-300zM350 800v-100h100v100h-100zM150 800v-100h100v100h-100zM0 -150v1000h600v-1000h-600z" />
<glyph unicode="&#xf7;" d="M50 400v-100h500v100h-500zM250 200v-100h100v100h-100zM350 500v100h-100v-100h100zM0 -150v1000h600v-1000h-600z" />
<glyph unicode="&#xf8;" d="M400 600v-100h-50v-50h-50v-50h-50v-50h-50v-50h-50v250h50v50h200zM450 150h-50v-50h-200v100h50v50h50v50h50v50h50v50h50v-250zM550 700h-400v-50h-50v-50h-50v-600h400v50h50v50h50v600zM0 -150v1000h600v-1000h-600z" />
<glyph unicode="&#xf9;" d="M150 800v-100h50v-50h50v-50h100v100h-50v50h-50v50h-100zM450 600v-450h-50v-50h-200v50h-50v450h-100v-500h50v-50h50v-50h300v50h50v50h50v500h-100zM0 -150v1000h600v-1000h-600z" />
<glyph unicode="&#xfa;" d="M450 700v100h-100v-50h-50v-50h-50v-100h100v50h50v50h50zM450 600v-450h-50v-50h-200v50h-50v450h-100v-500h50v-50h50v-50h300v50h50v50h50v500h-100zM0 -150v1000h600v-1000h-600z" />
<glyph unicode="&#xfb;" d="M450 600v100h-50v50h-50v50h-100v-50h-50v-50h-50v-100h-100v-500h50v-50h50v-50h300v50h50v50h50v500h-100zM150 600h100v50h100v-50h100v-450h-50v-50h-200v50h-50v450zM0 -150v1000h600v-1000h-600z" />
<glyph unicode="&#xfc;" d="M350 800v-100h100v100h-100zM150 800v-100h100v100h-100zM450 600v-450h-50v-50h-200v50h-50v450h-100v-500h50v-50h50v-50h300v50h50v50h50v500h-100zM0 -150v1000h600v-1000h-600z" />
<glyph unicode="&#xfd;" d="M450 700v100h-100v-50h-50v-50h-50v-100h100v50h50v50h50zM450 600v-150h-50v-50h-50v-50h-100v50h-50v50h-50v150h-100v-200h50v-50h50v-50h50v-50h50v-250h100v250h50v50h50v50h50v50h50v200h-100zM0 -150v1000h600v-1000h-600z" />
<glyph unicode="&#xfe;" horiz-adv-x="500" d="M450 450h-50v50h-50v50h-200v150h-100v-700h100v150h200v50h50v50h50v200zM350 300h-50v-50h-150v200h150v-50h50v-100zM0 -150v1000h500v-1000h-500z" />
<glyph unicode="&#xff;" d="M350 800v-100h100v100h-100zM150 800v-100h100v100h-100zM450 600v-150h-50v-50h-50v-50h-100v50h-50v50h-50v150h-100v-200h50v-50h50v-50h50v-50h50v-250h100v250h50v50h50v50h50v50h50v200h-100zM0 -150v1000h600v-1000h-600z" />
<glyph unicode="&#x126;" d="M450 700v-100h-300v100h-100v-700h100v300h300v-300h100v700h-100zM450 400h-300v100h300v-100zM0 -150v1000h600v-1000h-600z" />
<glyph unicode="&#x127;" d="M450 700v-100h-300v100h-100v-700h100v300h300v-300h100v700h-100zM450 400h-300v100h300v-100zM0 -150v1000h600v-1000h-600z" />
<glyph unicode="&#x128;" d="M550 800h-100v-50h-50v-50h-50v50h-50v50h-150v-50h-50v-50h-50v-100h100v50h50v50h50v-50h50v-50h-150v-100h100v-400h-100v-100h300v100h-100v400h100v150h50v50h50v100zM0 -150v1000h600v-1000h-600z" />
<glyph unicode="&#x129;" d="M550 800h-100v-50h-50v-50h-50v50h-50v50h-150v-50h-50v-50h-50v-100h100v50h50v50h50v-50h50v-50h-150v-100h100v-400h-100v-100h300v100h-100v400h100v150h50v50h50v100zM0 -150v1000h600v-1000h-600z" />
<glyph unicode="&#x131;" horiz-adv-x="400" d="M350 600h-300v-100h100v-400h-100v-100h300v100h-100v400h100v100zM0 -150v1000h400v-1000h-400z" />
<glyph unicode="&#x132;" d="M0 -150v1000h600v-1000h-600zM550 700h-100v-550h-50v-50h-150v500h100v100h-300v-100h100v-500h-100v-100h400v50h50v50h50v600z" />
<glyph unicode="&#x133;" d="M0 -150v1000h600v-1000h-600zM550 700h-100v-550h-50v-50h-150v500h100v100h-300v-100h100v-500h-100v-100h400v50h50v50h50v600z" />
<glyph unicode="&#x134;" d="M550 700h-50v50h-50v50h-100v-50h-50v-50h-50v-100h100v50h100v-50h100v100zM450 600h-100v-450h-50v-50h-100v50h-50v50h-100v-100h50v-50h50v-50h200v50h50v50h50v500zM0 -150v1000h600v-1000h-600z" />
<glyph unicode="&#x135;" d="M550 700h-50v50h-50v50h-100v-50h-50v-50h-50v-100h100v50h100v-50h100v100zM450 600h-100v-450h-50v-50h-100v50h-50v50h-100v-100h50v-50h50v-50h200v50h50v50h50v500zM0 -150v1000h600v-1000h-600z" />
<glyph unicode="&#x136;" d="M350 100h-100v-200h100v200zM550 700h-100v-50h-50v-50h-50v-50h-50v-50h-50v-50h-100v250h-100v-600h100v250h100v-50h50v-50h50v-50h50v-50h50v-50h100v100h-50v50h-50v50h-50v50h-50v100h50v50h50v50h50v50h50v100zM0 -150v1000h600v-1000h-600z" />
<glyph unicode="&#x137;" d="M350 100h-100v-200h100v200zM550 700h-100v-50h-50v-50h-50v-50h-50v-50h-50v-50h-100v250h-100v-600h100v250h100v-50h50v-50h50v-50h50v-50h50v-50h100v100h-50v50h-50v50h-50v50h-50v100h50v50h50v50h50v50h50v100zM0 -150v1000h600v-1000h-600z" />
<glyph unicode="&#x138;" d="M550 600h-100v-50h-50v-50h-50v-50h-50v-50h-50v-50h-100v250h-100v-600h100v250h100v-50h50v-50h50v-50h50v-50h50v-50h100v100h-50v50h-50v50h-50v50h-50v100h50v50h50v50h50v50h50v100zM0 -150v1000h600v-1000h-600z" />
<glyph unicode="&#x13f;" d="M550 100h-400v600h-100v-700h500v100zM350 400h-100v-100h100v100zM0 -150v1000h600v-1000h-600z" />
<glyph unicode="&#x140;" d="M550 100h-400v600h-100v-700h500v100zM350 400h-100v-100h100v100zM0 -150v1000h600v-1000h-600z" />
<glyph unicode="&#x141;" d="M550 0v100h-300v250h50v50h50v100h-100v200h-100v-350h-50v-50h-50v-100h100v-200h400zM0 -150v1000h600v-1000h-600z" />
<glyph unicode="&#x142;" d="M550 0v100h-300v250h50v50h50v100h-100v200h-100v-350h-50v-50h-50v-100h100v-200h400zM0 -150v1000h600v-1000h-600z" />
<glyph unicode="&#x143;" d="M450 800h-100v-50h-50v-50h-50v-100h100v50h50v50h50v100zM550 600h-100v-300h-50v50h-50v50h-50v50h-50v50h-50v50h-50v50h-100v-600h100v400h50v-50h50v-50h50v-50h50v-50h50v-50h50v-150h100v600zM0 -150v1000h600v-1000h-600z" />
<glyph unicode="&#x144;" d="M450 800h-100v-50h-50v-50h-50v-100h100v50h50v50h50v100zM550 600h-100v-300h-50v50h-50v50h-50v50h-50v50h-50v50h-50v50h-100v-600h100v400h50v-50h50v-50h50v-50h50v-50h50v-50h50v-150h100v600zM0 -150v1000h600v-1000h-600z" />
<glyph unicode="&#x152;" d="M550 700h-400v-50h-50v-50h-50v-500h50v-50h50v-50h400v100h-200v200h150v100h-150v200h200v100zM250 600v-500h-50v50h-50v400h50v50h50zM0 -150v1000h600v-1000h-600z" />
<glyph unicode="&#x153;" d="M550 700h-400v-50h-50v-50h-50v-500h50v-50h50v-50h400v100h-200v200h150v100h-150v200h200v100zM250 600v-500h-50v50h-50v400h50v50h50zM0 -150v1000h600v-1000h-600z" />
<glyph unicode="&#x154;" d="M500 500v50h-50v50h-100v50h50v50h50v100h-100v-50h-50v-50h-50v-100h-200v-600h100v250h100v-50h50v-50h50v-50h50v-50h50v-50h100v100h-50v50h-50v50h-50v50h50v50h50v50h50v150h-50zM450 400h-50v-50h-250v150h250v-50h50v-50zM0 -150v1000h600v-1000h-600z" />
<glyph unicode="&#x155;" d="M550 500h-50v50h-50v50h-100v50h50v50h50v100h-100v-50h-50v-50h-50v-100h-200v-600h100v250h100v-50h50v-50h50v-50h50v-50h50v-50h100v100h-50v50h-50v50h-50v50h50v50h50v50h50v150zM450 450v-50h-50v-50h-250v150h250v-50h50zM0 -150v1000h600v-1000h-600z" />
<glyph unicode="&#x156;" d="M350 100h-100v-200h100v200zM500 600v50h-50v50h-400v-600h100v250h100v-50h50v-50h50v-50h50v-50h50v-50h100v100h-50v50h-50v50h-50v50h50v50h50v50h50v150h-50zM450 500h-50v-50h-250v150h250v-50h50v-50zM0 -150v1000h600v-1000h-600z" />
<glyph unicode="&#x157;" d="M350 100h-100v-200h100v200zM500 600v50h-50v50h-400v-600h100v250h100v-50h50v-50h50v-50h50v-50h50v-50h100v100h-50v50h-50v50h-50v50h50v50h50v50h50v150h-50zM450 500h-50v-50h-250v150h250v-50h50v-50zM0 -150v1000h600v-1000h-600z" />
<glyph unicode="&#x158;" d="M500 500v50h-50v50h-100v50h50v50h50v100h-100v-50h-100v50h-100v-100h50v-50h50v-50h-200v-600h100v250h100v-50h50v-50h50v-50h50v-50h50v-50h100v100h-50v50h-50v50h-50v50h50v50h50v50h50v150h-50zM450 400h-50v-50h-250v150h250v-50h50v-50zM0 -150v1000h600v-1000 h-600z" />
<glyph unicode="&#x159;" d="M550 500h-50v50h-50v50h-100v50h50v50h50v100h-100v-50h-100v50h-100v-100h50v-50h50v-50h-200v-600h100v250h100v-50h50v-50h50v-50h50v-50h50v-50h100v100h-50v50h-50v50h-50v50h50v50h50v50h50v150zM450 450v-50h-50v-50h-250v150h250v-50h50zM0 -150v1000h600v-1000 h-600z" />
<glyph unicode="&#x160;" d="M550 400v100h-50v50h-50v50h-100v50h50v50h50v100h-100v-50h-100v50h-100v-100h50v-50h50v-50h-100v-50h-50v-50h-50v-150h50v-50h50v-50h250v-50h50v-50h-50v-50h-200v50h-50v50h-100v-100h50v-50h50v-50h300v50h50v50h50v150h-50v50h-50v50h-250v50h-50v50h50v50h200 v-50h50v-50h100zM0 -150v1000h600v-1000h-600z" />
<glyph unicode="&#x161;" d="M550 400v100h-50v50h-50v50h-100v50h50v50h50v100h-100v-50h-100v50h-100v-100h50v-50h50v-50h-100v-50h-50v-50h-50v-150h50v-50h50v-50h250v-50h50v-50h-50v-50h-200v50h-50v50h-100v-100h50v-50h50v-50h300v50h50v50h50v150h-50v50h-50v50h-250v50h-50v50h50v50h200 v-50h50v-50h100zM0 -150v1000h600v-1000h-600z" />
<glyph unicode="&#x178;" d="M350 800v-100h100v100h-100zM150 800v-100h100v100h-100zM450 600v-150h-50v-50h-50v-50h-100v50h-50v50h-50v150h-100v-200h50v-50h50v-50h50v-50h50v-250h100v250h50v50h50v50h50v50h50v200h-100zM0 -150v1000h600v-1000h-600z" />
<glyph unicode="&#x17d;" d="M550 450v150h-200v50h50v50h50v100h-100v-50h-100v50h-100v-100h50v-50h50v-50h-200v-100h350v-50h-50v-50h-50v-50h-50v-50h-50v-50h-50v-50h-50v-50h-50v-150h500v100h-350v50h50v50h50v50h50v50h50v50h50v50h50v50h50zM0 -150v1000h600v-1000h-600z" />
<glyph unicode="&#x17e;" d="M550 450v150h-200v50h50v50h50v100h-100v-50h-100v50h-100v-100h50v-50h50v-50h-200v-100h350v-50h-50v-50h-50v-50h-50v-50h-50v-50h-50v-50h-50v-50h-50v-150h500v100h-350v50h50v50h50v50h50v50h50v50h50v50h50v50h50zM0 -150v1000h600v-1000h-600z" />
<glyph unicode="&#x2c6;" horiz-adv-x="400" d="M250 800h-100v-50h-50v-50h-50v-100h100v50h100v-50h100v100h-50v50h-50v50zM0 -150v1000h400v-1000h-400z" />
<glyph unicode="&#x2c7;" horiz-adv-x="400" d="M350 700v100h-100v-50h-100v50h-100v-100h50v-50h50v-50h100v50h50v50h50zM0 -150v1000h400v-1000h-400z" />
<glyph unicode="&#x2dc;" d="M50 700v-100h100v50h50v50h50v-50h50v-50h150v50h50v50h50v100h-100v-50h-50v-50h-50v50h-50v50h-150v-50h-50v-50h-50zM0 -150v1000h600v-1000h-600z" />
<glyph unicode="&#x2013;" horiz-adv-x="400" d="M50 400v-100h300v100h-300zM0 -150v1000h400v-1000h-400z" />
<glyph unicode="&#x2014;" d="M50 400v-100h500v100h-500zM0 -150v1000h600v-1000h-600z" />
<glyph unicode="&#x2018;" horiz-adv-x="300" d="M250 400v100h-100v50h50v50h50v100h-100v-50h-50v-50h-50v-200h200zM0 -150v1000h300v-1000h-300z" />
<glyph unicode="&#x2019;" horiz-adv-x="300" d="M50 700v-100h100v-50h-50v-50h-50v-100h100v50h50v50h50v200h-200zM0 -150v1000h300v-1000h-300z" />
<glyph unicode="&#x201a;" horiz-adv-x="300" d="M250 200h-200v-100h100v-50h-50v-50h-50v-100h100v50h50v50h50v200zM0 -150v1000h300v-1000h-300z" />
<glyph unicode="&#x201c;" d="M250 400v100h-100v50h50v50h50v100h-100v-50h-50v-50h-50v-200h200zM550 400v100h-100v50h50v50h50v100h-100v-50h-50v-50h-50v-200h200zM0 -150v1000h600v-1000h-600z" />
<glyph unicode="&#x201d;" d="M350 700v-100h100v-50h-50v-50h-50v-100h100v50h50v50h50v200h-200zM50 700v-100h100v-50h-50v-50h-50v-100h100v50h50v50h50v200h-200zM0 -150v1000h600v-1000h-600z" />
<glyph unicode="&#x201e;" d="M550 200h-200v-100h100v-50h-50v-50h-50v-100h100v50h50v50h50v200zM250 200h-200v-100h100v-50h-50v-50h-50v-100h100v50h50v50h50v200zM0 -150v1000h600v-1000h-600z" />
<glyph unicode="&#x2022;" horiz-adv-x="300" d="M50 450v-200h200v200h-200zM0 -150v1000h300v-1000h-300z" />
<glyph unicode="&#x2039;" horiz-adv-x="400" d="M250 600v-50h-50v-50h-50v-50h-50v-50h-50v-100h50v-50h50v-50h50v-50h50v-50h100v500h-100zM0 -150v1000h400v-1000h-400z" />
<glyph unicode="&#x203a;" horiz-adv-x="400" d="M300 400v50h-50v50h-50v50h-50v50h-100v-500h100v50h50v50h50v50h50v50h50v100h-50zM0 -150v1000h400v-1000h-400z" />
<glyph unicode="&#x20ac;" d="M550 500v100h-50v50h-50v50h-200v-50h-50v-50h-50v-200h-100v-100h100v-200h50v-50h50v-50h200v50h50v50h50v100h-100v-50h-50v-50h-100v50h-50v150h200v100h-200v150h50v50h100v-50h50v-50h100zM0 -150v1000h600v-1000h-600z" />
<glyph unicode="&#x2122;" d="M550 700h-100v-50h-100v50h-300v-100h50v-200h100v200h50v-200h100v100h100v-100h100v300zM0 -150v1000h600v-1000h-600z" />
<glyph unicode="&#x2212;" horiz-adv-x="500" d="M50 400v-100h400v100h-400zM0 -150v1000h500v-1000h-500z" />
<glyph unicode="&#x25fc;" horiz-adv-x="850" d="M0 850h850v-850h-850v850z" />
</font>
</defs>
</svg>
